<svg width="25" height="25" viewBox="0 0 25 25" fill="none" xmlns="http://www.w3.org/2000/svg">
<g id="SVG" clip-path="url(#clip0_1_66)">
<path id="Vector" d="M3.66 21.8101V17.8101C3.66 17.0189 3.8946 16.2456 4.33413 15.5878C4.77365 14.93 5.39837 14.4173 6.12927 14.1145C6.86017 13.8118 7.66444 13.7326 8.44036 13.8869C9.21629 14.0413 9.92902 14.4222 10.4884 14.9816C11.0478 15.541 11.4288 16.2538 11.5831 17.0297C11.7375 17.8056 11.6583 18.6099 11.3555 19.3408C11.0528 20.0717 10.5401 20.6964 9.88228 21.1359C9.22449 21.5755 8.45113 21.8101 7.66 21.8101H3.66Z" stroke="white" stroke-width="2" stroke-linecap="round" stroke-linejoin="round"/>
<path id="Vector_2" d="M21.66 3.81006C18.8058 4.20046 16.11 5.3542 13.8571 7.1495C11.6041 8.9448 9.8777 11.3151 8.86 14.0101" stroke="white" stroke-width="2" stroke-linecap="round" stroke-linejoin="round"/>
<path id="Vector_3" d="M21.66 3.81006C21.2696 6.66424 20.1159 9.36008 18.3206 11.613C16.5253 13.8659 14.155 15.5924 11.46 16.6101" stroke="white" stroke-width="2" stroke-linecap="round" stroke-linejoin="round"/>
<path id="Vector_4" d="M11.26 9.81006C13.2032 10.7069 14.7631 12.2669 15.66 14.2101" stroke="white" stroke-width="2" stroke-linecap="round" stroke-linejoin="round"/>
</g>
<defs>
<clipPath id="clip0_1_66">
<rect width="24" height="24" fill="white" transform="translate(0.660004 0.810059)"/>
</clipPath>
</defs>
</svg>
