<svg width="24" height="21" viewBox="0 0 24 21" fill="none" xmlns="http://www.w3.org/2000/svg">
<g id="SVG" clip-path="url(#clip0_1_130)">
<path id="Vector" d="M8.66667 18.23H15.3333C16.4384 18.23 17.4982 17.791 18.2796 17.0096C19.061 16.2282 19.5 15.1684 19.5 14.0633V11.5633C19.5 10.9003 19.2366 10.2644 18.7678 9.79555C18.2989 9.32671 17.663 9.06331 17 9.06331H16.1667V7.39665C16.1667 6.29158 15.7277 5.23177 14.9463 4.45037C14.1649 3.66897 13.1051 3.22998 12 3.22998H8.66667C7.5616 3.22998 6.50179 3.66897 5.72039 4.45037C4.93899 5.23177 4.5 6.29158 4.5 7.39665V14.0633C4.5 15.1684 4.93899 16.2282 5.72039 17.0096C6.50179 17.791 7.5616 18.23 8.66667 18.23Z" stroke="white" stroke-width="1.66667" stroke-linecap="round" stroke-linejoin="round"/>
<path id="Vector_2" d="M7.83334 7.81323C7.83334 7.48171 7.96504 7.16377 8.19946 6.92935C8.43388 6.69493 8.75182 6.56323 9.08334 6.56323H11.5833C11.9149 6.56323 12.2328 6.69493 12.4672 6.92935C12.7016 7.16377 12.8333 7.48171 12.8333 7.81323C12.8333 8.14475 12.7016 8.4627 12.4672 8.69712C12.2328 8.93154 11.9149 9.06323 11.5833 9.06323H9.08334C8.75182 9.06323 8.43388 8.93154 8.19946 8.69712C7.96504 8.4627 7.83334 8.14475 7.83334 7.81323Z" stroke="white" stroke-width="1.66667" stroke-linecap="round" stroke-linejoin="round"/>
<path id="Vector_3" d="M7.83334 13.6467C7.83334 13.3152 7.96504 12.9973 8.19946 12.7628C8.43388 12.5284 8.75182 12.3967 9.08334 12.3967H14.9167C15.2482 12.3967 15.5661 12.5284 15.8006 12.7628C16.035 12.9973 16.1667 13.3152 16.1667 13.6467C16.1667 13.9782 16.035 14.2962 15.8006 14.5306C15.5661 14.765 15.2482 14.8967 14.9167 14.8967H9.08334C8.75182 14.8967 8.43388 14.765 8.19946 14.5306C7.96504 14.2962 7.83334 13.9782 7.83334 13.6467Z" stroke="white" stroke-width="1.66667" stroke-linecap="round" stroke-linejoin="round"/>
</g>
<defs>
<clipPath id="clip0_1_130">
<rect width="24" height="20" fill="white" transform="translate(0 0.72998)"/>
</clipPath>
</defs>
</svg>
