<svg width="24" height="21" viewBox="0 0 24 21" fill="none" xmlns="http://www.w3.org/2000/svg">
<g id="SVG" clip-path="url(#clip0_1_151)">
<path id="Vector" d="M5.33333 5.7299C5.33333 5.28787 5.50892 4.86395 5.82148 4.55139C6.13404 4.23883 6.55797 4.06323 6.99999 4.06323H17C17.442 4.06323 17.8659 4.23883 18.1785 4.55139C18.4911 4.86395 18.6667 5.28787 18.6667 5.7299V15.7299C18.6667 16.1719 18.4911 16.5958 18.1785 16.9084C17.8659 17.221 17.442 17.3966 17 17.3966H6.99999C6.55797 17.3966 6.13404 17.221 5.82148 16.9084C5.50892 16.5958 5.33333 16.1719 5.33333 15.7299V5.7299Z" stroke="white" stroke-width="1.66667" stroke-linecap="round" stroke-linejoin="round"/>
<path id="Vector_2" d="M5.33333 11.5632H7.83333L10.3333 14.0632H13.6667L16.1667 11.5632H18.6667" stroke="white" stroke-width="1.66667" stroke-linecap="round" stroke-linejoin="round"/>
</g>
<defs>
<clipPath id="clip0_1_151">
<rect width="24" height="20" fill="white" transform="translate(0 0.72998)"/>
</clipPath>
</defs>
</svg>
