<svg width="62" height="62" viewBox="0 0 62 62" fill="none" xmlns="http://www.w3.org/2000/svg">
<g id="bi:medium" clip-path="url(#clip0_18_485)">
<path id="Vector" d="M34.9078 31C34.9078 40.4741 27.2066 48.1563 17.702 48.1563C15.446 48.1593 13.2115 47.7179 11.1261 46.8573C9.04067 45.9968 7.14517 44.7339 5.54782 43.1408C3.95047 41.5477 2.68254 39.6556 1.81643 37.5724C0.950326 35.4893 0.503002 33.256 0.5 31C0.5 21.5221 8.20125 13.8438 17.702 13.8438C19.9583 13.8403 22.1932 14.2813 24.2791 15.1416C26.3649 16.0019 28.2609 17.2647 29.8586 18.8579C31.4564 20.451 32.7247 22.3433 33.591 24.4267C34.4574 26.5101 34.9048 28.7437 34.9078 31ZM53.7797 31C53.7797 39.9213 49.9291 47.1498 45.1787 47.1498C40.4283 47.1498 36.5777 39.9175 36.5777 31C36.5777 22.0788 40.4283 14.8503 45.1787 14.8503C49.9291 14.8503 53.7797 22.0826 53.7797 31ZM61.5 31C61.5 38.991 60.1466 45.4685 58.4729 45.4685C56.803 45.4685 55.4496 38.9872 55.4496 31C55.4496 23.009 56.803 16.5316 58.4767 16.5316C60.1466 16.5316 61.5 23.009 61.5 31Z" fill="white"/>
</g>
<defs>
<clipPath id="clip0_18_485">
<rect width="61" height="61" fill="white" transform="translate(0.5 0.5)"/>
</clipPath>
</defs>
</svg>
