<svg width="48" height="56" viewBox="0 0 48 56" fill="none" xmlns="http://www.w3.org/2000/svg">
<path id="Vector" fill-rule="evenodd" clip-rule="evenodd" d="M17.8542 3.15566C14.5706 4.89492 11.872 6.3634 11.8823 6.42589C11.8823 6.58211 19.773 10.6334 20.05 10.623C20.1732 10.623 21.0966 10.1856 22.1022 9.66487L23.9287 8.71713L25.9193 9.7586L27.91 10.8001L31.173 9.31076C36.0777 7.0716 36.5908 6.82165 36.5087 6.74874C36.4061 6.63418 34.6412 5.67603 29.8595 3.12442C27.5508 1.89548 25.3139 0.676955 24.883 0.437417C24.452 0.187463 24.0416 0 23.9697 0C23.8979 0 21.1377 1.4164 17.8542 3.15566ZM3.43744 10.7376L0.0102616 12.5289V20.4025C0.0102616 24.735 0.0513057 28.276 0.112872 28.276C0.164177 28.276 1.84698 27.5365 3.85814 26.6305L7.5008 24.9849V16.6844L9.27596 17.6634C10.6509 18.4237 12.0156 19.1735 13.3906 19.9338L15.7301 21.2148L16.7665 20.7357C17.4232 20.4337 18.0696 20.1317 18.7161 19.8296C19.2189 19.5901 20.4502 19.0277 21.4558 18.5799C22.4614 18.132 23.3849 17.6738 23.5182 17.5696C23.6927 17.4343 21.5584 16.2366 15.6275 13.1434C11.1537 10.8105 7.34688 8.91501 7.17245 8.92542C6.99801 8.93584 5.3152 9.74818 3.43744 10.7376ZM37.1141 11.2375C34.7848 12.3102 32.8763 13.2267 32.8763 13.2788C32.8763 13.3309 34.1487 14.1015 35.6981 14.9868C37.2577 15.872 38.5198 16.6427 38.5198 16.7052C38.5198 16.7677 37.1449 17.4447 35.4621 18.2049C33.7793 18.9756 29.5312 20.9232 26.0117 22.5375L14.2423 27.9427C11.2769 29.2966 8.60899 30.5256 8.31142 30.661C2.26768 33.4417 0.595139 34.2124 0.369397 34.3478C0.143655 34.4832 0.0923491 35.2539 0.0513051 39.1385L0 43.7731L3.05778 45.3561L6.11556 46.9392L10.3636 44.9916C12.6929 43.9189 14.6117 42.992 14.6117 42.9191C14.6117 42.8462 14.1807 42.565 13.6574 42.2838C13.1341 42.0026 12.0464 41.3777 11.2358 40.8986C10.4355 40.4196 9.63509 39.9821 9.46066 39.9197C9.28622 39.8572 9.14256 39.7634 9.14256 39.6905C9.14256 39.628 11.0101 38.722 13.2983 37.6909C17.731 35.6809 21.1172 34.1291 28.3922 30.7859C31.645 29.2966 34.8977 27.7969 38.1607 26.3076C41.0235 24.9953 44.3481 23.4644 45.5486 22.902L47.7342 21.8813L47.7855 17.1947L47.8368 12.5081L44.738 10.9042C43.0347 10.019 41.5674 9.28994 41.4955 9.28994C41.4135 9.28994 39.4433 10.1752 37.1141 11.2375ZM46.9134 28.151C46.4516 28.3801 45.5486 28.8071 44.9022 29.0987C44.2557 29.3904 43.0244 29.9528 42.1728 30.3485L40.6234 31.0671L40.5926 35.181C40.572 37.441 40.49 39.2844 40.4079 39.2739C40.2232 39.2427 37.3193 37.7326 34.3949 36.1391C32.2812 34.9935 32.1478 34.9414 31.6552 35.1914C31.3679 35.3372 29.6543 36.1183 27.8484 36.9202C26.0425 37.7326 24.5033 38.4408 24.4315 38.5137C24.3596 38.5762 27.992 40.5758 32.5172 42.9608L40.726 47.2933L44.2352 45.4499C46.1643 44.4396 47.8061 43.5127 47.8779 43.3982C48.0523 43.1378 48.0318 27.7032 47.8676 27.724C47.7958 27.7344 47.3648 27.9219 46.9134 28.151ZM27.479 46.2622C26.8736 46.5226 26.2579 46.7934 25.6525 47.0642C23.8158 47.8661 24.1749 47.8973 21.9894 46.7934C20.5323 46.0539 19.9064 45.8352 19.6293 45.9394C19.4241 46.0227 17.6695 46.8246 15.7199 47.7203C13.7805 48.616 12.1183 49.3554 12.0362 49.3554C11.2153 49.3554 12.58 50.1782 17.8131 52.8548L23.9492 56L26.535 54.7086C27.951 54.0004 30.8241 52.5736 32.8968 51.5425C34.9798 50.5114 36.6523 49.647 36.6216 49.6054C36.5908 49.5741 34.8464 48.668 32.7429 47.5849L28.9258 45.6269L27.479 46.2622Z" fill="white"/>
</svg>
