<svg width="52" height="52" viewBox="0 0 52 52" fill="none" xmlns="http://www.w3.org/2000/svg">
<g id="mdi:twitter">
<path id="Vector" d="M48.6633 12.9998C46.995 13.7582 45.1967 14.2565 43.3333 14.4948C45.24 13.3465 46.7133 11.5265 47.4067 9.33817C45.6083 10.4215 43.615 11.1798 41.5133 11.6132C39.8017 9.74984 37.3967 8.6665 34.6667 8.6665C29.575 8.6665 25.415 12.8265 25.415 17.9615C25.415 18.6982 25.5017 19.4132 25.6533 20.0848C17.94 19.6948 11.0717 15.9898 6.5 10.3782C5.69834 11.7432 5.24334 13.3465 5.24334 15.0365C5.24334 18.2648 6.86834 21.1248 9.38167 22.7498C7.84334 22.7498 6.41334 22.3165 5.15667 21.6665V21.7315C5.15667 26.2382 8.36334 30.0082 12.61 30.8532C11.2466 31.2263 9.81521 31.2782 8.42834 31.0048C9.01682 32.8519 10.1693 34.4681 11.7239 35.6262C13.2784 36.7843 15.1568 37.4262 17.095 37.4615C13.8095 40.0625 9.737 41.4684 5.54667 41.4482C4.81 41.4482 4.07334 41.4048 3.33667 41.3182C7.45334 43.9615 12.35 45.4998 17.5933 45.4998C34.6667 45.4998 44.0483 31.3298 44.0483 19.0448C44.0483 18.6332 44.0483 18.2432 44.0267 17.8315C45.8467 16.5315 47.4067 14.8848 48.6633 12.9998Z" fill="white"/>
</g>
</svg>
