<svg width="50" height="50" viewBox="0 0 50 50" fill="none" xmlns="http://www.w3.org/2000/svg">
<g id="Group">
<path id="Vector" fill-rule="evenodd" clip-rule="evenodd" d="M41.2021 9.22909C41.7169 9.01241 42.2804 8.93768 42.8339 9.01267C43.3874 9.08767 43.9107 9.30965 44.3493 9.65552C44.788 10.0014 45.1259 10.4585 45.3279 10.9793C45.5299 11.5 45.5886 12.0654 45.4979 12.6166L40.7729 41.277C40.3146 44.0416 37.2812 45.627 34.7458 44.2499C32.625 43.0978 29.475 41.3228 26.6417 39.4708C25.225 38.5437 20.8854 35.5749 21.4187 33.4624C21.8771 31.6562 29.1687 24.8687 33.3354 20.8333C34.9708 19.2478 34.225 18.3333 32.2937 19.7916C27.4958 23.4124 19.7979 28.9187 17.2521 30.4687C15.0062 31.8353 13.8354 32.0687 12.4354 31.8353C9.88124 31.4103 7.51249 30.752 5.57916 29.9499C2.96666 28.8666 3.09374 25.2749 5.57708 24.2291L41.2021 9.22909Z" fill="white"/>
</g>
</svg>
