<svg width="62" height="62" viewBox="0 0 62 62" fill="none" xmlns="http://www.w3.org/2000/svg">
<g id="unicrypt-unc-seeklogo.com 1" clip-path="url(#clip0_18_489)">
<g id="Clip path group">
<mask id="mask0_18_489" style="mask-type:luminance" maskUnits="userSpaceOnUse" x="0" y="0" width="62" height="62">
<g id="a">
<path id="Vector" d="M30.7078 61.513C47.5942 61.513 61.2833 47.7726 61.2833 30.8229C61.2833 13.8732 47.5942 0.132812 30.7078 0.132812C13.8214 0.132812 0.132324 13.8732 0.132324 30.8229C0.132324 47.7726 13.8214 61.513 30.7078 61.513Z" fill="white"/>
</g>
</mask>
<g mask="url(#mask0_18_489)">
<g id="Group">
<path id="Vector_2" d="M59.3758 67.9102C59.3758 67.1465 59.2435 66.6263 59.1222 65.8627C58.8686 65.2208 58.7363 64.8445 58.2291 64.0698C57.9755 63.9369 57.8432 63.9369 57.8432 63.6824C57.7108 63.4278 57.5896 62.9187 57.4572 62.6642L57.8432 61.5132C57.9755 61.1258 57.8432 60.6167 57.8432 60.1076C57.7108 59.853 57.336 59.4657 57.2036 59.2111C56.4428 58.5692 55.671 58.1929 54.7779 57.8056C52.7381 56.0126 50.5769 54.6071 48.5371 52.9469C48.2835 52.8141 48.1512 52.5596 48.0299 52.305C47.8976 52.0505 47.644 51.9177 47.7763 51.7959C47.7763 50.8995 47.3904 50.003 46.8832 49.2393C46.376 48.5974 45.7365 48.2211 45.0969 48.2211C44.3361 48.2211 43.5643 48.4757 43.0571 48.7302C42.6712 49.1176 42.164 49.3721 41.7781 49.7484C39.7382 50.7666 37.5771 51.0323 35.5373 52.1833C35.0301 52.4378 34.6441 52.5706 34.3905 52.9469C34.2582 52.4378 34.2582 51.9287 34.137 51.4086C34.0046 51.154 33.6297 50.7666 33.4974 50.5121C33.751 48.2101 33.3651 45.7863 32.6043 43.4842C32.3507 42.7206 32.0971 41.9459 31.9648 41.1822C32.2184 41.6913 32.7256 41.8241 33.1115 42.2004C33.3651 42.7095 33.751 43.3514 34.1259 43.4842C34.5118 43.6171 34.8867 43.4842 35.1403 43.3514C35.3939 43.4842 35.7798 43.606 36.0334 43.4842C36.7943 43.2297 37.4338 42.9751 38.0733 42.466C38.7128 41.7024 39.0877 40.6731 39.3523 39.9095C39.4846 39.6549 39.7382 39.5221 39.7382 39.4003C39.8705 39.013 39.6059 38.3821 39.4846 38.1165C38.8451 37.2201 38.9774 36.069 38.5915 35.0508C38.3379 33.5125 38.0843 32.1069 38.5915 30.5796C38.7238 30.325 38.8451 29.9377 38.8451 29.6831C38.8451 28.2775 38.7128 27.2483 38.3379 26.2301C38.5915 26.3629 38.8451 26.0972 39.0987 25.9755C39.231 25.7209 39.3523 25.8427 39.4846 25.5881C39.6169 25.3336 39.8705 25.2008 39.8705 25.2008C40.1242 25.3336 40.6313 25.2008 40.8849 25.068C41.1385 24.9352 41.3922 24.8134 41.7781 24.6806C42.0317 24.5478 42.164 24.1715 42.4176 23.917C42.6712 24.0498 43.1784 23.9169 43.432 23.7841C43.6856 23.6513 43.9392 23.5296 44.3251 23.3968C44.5787 23.264 44.8323 23.1422 44.9646 22.6331L45.2182 22.7659C45.7254 22.6331 45.979 22.5114 46.2326 22.3786C46.9934 22.124 47.247 21.9912 47.6329 21.6149C48.1402 21.4821 48.3938 21.3604 48.6474 21.2276C49.1546 21.0947 49.5405 20.8402 50.0477 20.4639C50.18 20.2093 50.3013 20.3311 50.3013 20.3311C50.5549 20.1983 50.8085 20.1983 51.0621 20.0765C51.3157 19.9437 51.8229 19.822 52.0765 19.6892C52.3301 19.5564 52.3301 19.5564 52.5837 19.4346C53.0909 19.1801 53.8627 19.1801 54.3699 18.9255L54.6235 18.7927C54.3699 18.9255 54.1163 18.9255 53.8627 19.0473C53.8627 19.0473 53.6091 18.9145 53.1019 19.0473C52.8483 19.1801 52.5947 19.1801 52.3411 19.3018C52.0875 19.4346 51.8339 19.4346 51.5803 19.5564L51.9662 19.6892C51.7126 19.5564 51.7126 19.822 51.459 19.822C51.2054 19.9548 50.6982 20.0765 50.4446 19.9548C50.191 20.0876 49.9374 20.0876 49.6838 20.2093C49.6838 20.2093 49.4302 20.3422 49.1766 20.3422C48.2835 20.3422 47.5227 20.475 46.6296 20.7295C46.376 20.5967 46.376 20.8623 46.1224 20.8623C45.7365 21.2497 45.2293 21.2497 45.108 21.2497C44.6008 21.3825 43.8289 21.3825 43.5753 21.7588C43.3217 21.626 42.9358 21.5042 42.6822 21.7588C41.9214 21.7588 41.4032 21.8916 40.7747 22.4007C40.5211 22.2679 40.1352 22.1462 39.8816 22.4007C39.628 21.7588 39.2421 21.8916 39.2421 21.8916C38.7348 21.2497 38.3489 21.1279 37.963 20.7406C36.4304 19.5896 34.7765 18.8259 32.8689 18.184C32.2294 17.9294 31.8545 17.7966 31.215 17.4203C30.3219 17.1658 29.8147 16.7784 29.1752 16.2693C28.5357 15.882 28.0285 15.2511 27.5213 14.6092C27.6536 15.1183 27.9072 15.5057 28.2821 15.7602C28.7893 16.4021 29.5611 17.1658 30.1896 17.2986C28.9106 16.9112 27.7638 16.0148 26.6281 15.1294C25.8673 14.742 25.0955 14.2329 24.3347 14.2329C23.5739 14.2329 22.8021 14.742 22.1736 15.2511C22.6808 14.9966 23.5739 14.742 24.2134 14.742C25.3601 14.8748 26.2533 15.6385 27.1464 16.1476C26.2533 15.893 25.746 15.5057 24.8529 15.1294C24.0921 15.1294 23.5739 15.3839 22.9454 15.7713C23.4526 15.6385 23.8385 15.3839 24.2244 15.5167C24.9853 15.5167 25.7571 16.0258 26.3856 16.1587C25.3712 16.546 24.0921 16.6678 23.3313 16.8006C22.5705 17.0551 21.6774 16.9334 20.7843 16.6678C20.3984 16.5349 19.7699 16.1587 19.384 15.7713C19.5163 16.0258 19.7699 16.6678 20.2771 16.7895C20.9166 17.1769 21.5561 17.4314 22.1846 17.686C21.4238 17.686 20.7843 17.686 20.0235 17.1769C19.2627 16.6678 18.7445 16.0258 18.3696 15.5167C18.6232 16.0258 18.6232 16.8006 19.0091 17.1769C19.2627 17.686 19.9022 17.9405 20.4094 18.0733C20.0235 17.9405 19.5163 17.8188 19.0091 17.4314C18.6232 17.2986 18.2483 16.9223 17.8624 16.4132C18.116 16.9223 18.3696 17.8188 19.0091 18.2061C19.395 18.5935 19.7699 18.7152 20.1558 19.1026C19.9022 18.9698 19.395 19.1026 19.2627 19.1026C18.116 18.9698 17.2228 18.9698 15.9548 18.9698C14.6868 18.9698 13.6614 19.6117 12.647 20.2536C13.1542 19.9991 14.0473 19.7445 14.8081 19.49C15.3153 19.3572 16.0872 19.3571 16.462 19.3571C15.183 19.6117 13.915 19.9991 12.7683 20.5082C12.1288 21.0173 11.2356 21.4046 10.982 22.3011C10.7284 22.943 10.982 23.7067 11.2356 24.4703C11.1033 23.9612 10.8497 23.4521 11.1033 22.8102C11.3569 22.1683 11.8641 21.9137 12.5037 21.4046C12.1177 22.0465 11.3569 22.6885 11.3569 23.4521C11.6105 24.2158 12.1177 24.8577 12.636 25.245C12.25 24.8577 11.9965 24.3486 12.1288 23.8395C11.9965 23.3304 12.636 23.0758 13.0219 22.6885C13.915 22.0465 15.183 21.9248 16.2084 21.792C15.3153 22.1794 14.3009 22.5556 13.7827 23.4521C13.3968 24.094 13.2755 24.9905 13.5291 25.7542C13.6614 25.3668 13.5291 24.8577 13.915 24.4703C14.3009 23.8284 15.0617 23.7067 15.7012 23.1865C15.5689 23.5739 15.194 23.9502 15.0617 24.4703C14.5545 25.234 13.915 26.0087 12.9006 26.6395C12.3934 26.8941 11.6216 26.8941 11.2467 26.7724C10.6072 26.385 10.1 25.7542 9.96764 24.9794C10.2212 25.4885 10.2212 26.2633 10.8608 26.6395C11.2467 27.0269 11.8752 27.1487 12.5147 27.4032C11.7539 27.4032 10.8608 27.536 10.3536 26.8941C9.71404 26.5067 9.59275 25.4885 9.59275 24.7249C9.33915 25.6213 9.33915 26.2633 9.72507 27.1597C10.2323 27.8016 11.0041 28.3107 11.6326 28.4435C10.9931 28.189 10.6182 28.0562 9.97867 27.6799C9.59275 27.2925 9.21786 26.9162 8.96426 26.3961C9.09657 27.4143 9.85738 28.0562 10.6182 28.5653C11.6326 29.0744 12.5257 29.2072 13.5511 29.0744C13.1652 29.4618 12.658 29.7163 12.1508 29.5835C11.2577 29.5835 10.111 29.1961 9.09658 29.3289C8.33577 29.3289 7.94986 30.0926 7.44265 30.7345C7.82857 30.3472 8.45706 29.838 9.09658 29.838C9.98969 29.838 10.8828 30.2254 11.5223 30.3472C11.0151 30.48 10.3756 30.2143 9.8684 30.3472C9.3612 30.48 8.58937 30.48 8.33577 30.8563C7.94986 31.2436 7.94986 31.8745 8.08217 32.3946C8.21448 32.1401 8.08217 31.631 8.33577 31.4982C8.72169 31.1108 9.22889 31.1108 9.35018 31.1108C9.73609 31.2436 10.4969 31.2436 11.1364 31.6199C10.3756 31.6199 9.85738 31.7527 9.48249 32.2618C9.09658 32.9037 8.97529 33.28 8.72169 33.9219C8.33577 34.3093 8.21449 34.9402 7.96088 35.5821C7.32137 36.8659 7.06777 38.3932 7.45368 39.9316C7.8396 40.9498 8.21449 42.1008 9.1076 42.8755C8.854 42.3664 8.3468 41.47 8.3468 40.9609C8.21449 39.9427 8.21449 39.0462 8.73272 38.2715C8.98632 37.6295 9.37223 36.9876 9.62583 36.3568L9.49352 36.6113C9.36121 37.6295 8.854 38.526 8.98631 39.8098C9.11863 41.0937 9.62583 42.1119 10.2653 43.1301C10.133 42.8755 9.87943 42.2336 9.75814 41.7245C9.50454 40.9609 9.37223 39.9316 9.62583 39.0351C10.0117 37.7513 11.0261 36.8659 11.787 35.9694C11.2798 36.9876 10.7726 37.7624 10.3866 38.9134C10.133 39.5553 10.133 40.3189 10.3866 41.0826C10.519 41.5917 10.7726 42.1008 10.7726 42.8755C10.7726 43.6392 10.7725 44.2811 10.133 44.7902C9.49352 45.2993 8.6004 45.2993 7.97191 45.0448C7.34342 44.7902 6.82519 44.1483 6.31799 43.5064C6.4503 44.0155 6.7039 44.5246 6.9575 45.1665C7.34342 45.5539 7.97191 45.6756 8.35782 46.063C7.07879 45.6756 5.67847 45.6756 4.41047 45.8084C3.90326 45.9412 3.13143 46.063 2.75654 46.4503C2.37063 46.8377 2.50294 47.3468 2.62423 47.6013C2.87783 48.1105 3.26374 48.7524 3.51735 49.2615C3.26374 48.7524 2.87783 48.365 3.01014 47.8559C3.14246 47.3468 3.39606 47.214 3.64966 47.3468C4.41047 47.3468 5.30359 47.3468 6.1967 47.7342C6.58261 47.867 7.21111 48.1215 7.59702 48.2433C7.21111 48.1104 6.7039 48.2433 6.1967 47.9887C5.9431 47.8559 5.6895 48.1215 5.43589 48.2433C5.30358 48.4978 5.30358 48.6306 5.43589 49.0069C5.56821 49.516 5.82181 49.9034 6.1967 50.1579C6.06439 49.9034 5.9431 49.3943 6.06439 49.1397C6.1967 48.7524 6.7039 48.6306 6.9575 48.7524C8.10423 48.8852 9.25094 49.2615 10.3977 49.3943C11.2908 49.3943 12.3052 49.2615 12.9447 48.7524C13.5842 48.2433 13.8378 47.6013 13.8378 46.8377C13.8378 47.6013 13.8378 48.2433 13.4519 48.8852C12.9447 49.6488 11.9193 49.7816 11.1585 50.0362C10.1441 50.169 9.25094 49.9034 8.10422 49.7816C9.11863 50.169 10.3977 50.5453 11.5444 50.6781C12.3052 50.6781 12.8234 50.5453 13.4519 50.5453C12.5588 50.9327 11.798 51.1872 10.9049 51.1872C10.1441 51.1872 9.89046 50.7998 9.11863 50.7998C9.75814 51.0544 10.133 51.3089 10.7726 51.5635C11.4121 51.8181 12.1729 51.8181 12.8124 51.6963C12.3052 51.9509 11.4121 52.46 10.7726 52.2054C10.3866 52.0726 9.75814 51.6963 9.37223 51.5635C9.75814 51.9509 10.133 52.3272 10.6513 52.7145C11.2908 52.9691 11.6657 53.1019 12.4375 53.1019C9.25094 55.4039 5.6895 57.1968 1.99574 58.0933C1.10262 58.0933 0.463104 57.8388 -0.5513 57.706C-1.5657 57.5731 -2.59114 57.5731 -3.48426 57.9605C-3.99146 58.0933 -4.24506 58.2151 -4.88457 58.4696C-6.1636 59.1115 -7.56393 59.3661 -8.71065 60.3843C-9.60376 61.0262 -10.3646 62.0444 -11.0041 62.9409C-11.8972 62.6863 -12.5367 62.4318 -13.2975 61.9227C-14.4442 61.0262 -15.3374 60.2625 -16.2305 59.2333C-16.9913 58.4696 -17.6308 57.5731 -18.0167 56.6767C-18.149 56.1676 -18.4026 55.7802 -18.7775 55.5257C-19.6706 54.5075 -20.685 53.4782 -21.9641 52.5817C-22.7249 52.0726 -23.7503 52.0726 -24.6434 52.1943C-25.6578 52.3272 -26.5509 52.958 -27.3228 53.7327C-28.3372 54.6292 -29.109 55.7802 -29.7485 56.7984C-30.6416 56.5439 -31.5348 56.2893 -31.9097 55.3928C-32.4169 54.7509 -32.4169 53.9873 -32.6705 53.2236C-32.6705 53.9873 -32.9241 54.6292 -32.5381 55.1383C-32.4058 55.3928 -32.2845 55.902 -31.8986 56.2893C-32.6594 55.5257 -33.2989 54.8837 -33.2989 53.9873C-33.2989 53.0908 -32.913 52.1943 -32.6594 51.2979C-33.0453 51.9398 -33.1666 52.3161 -33.6738 52.8363C-33.9274 53.7327 -34.181 54.3746 -34.0598 55.3928C-33.9274 56.4111 -33.1666 57.053 -32.4058 57.8277C-33.0453 57.4403 -33.6849 57.1858 -33.9385 56.6767C-34.3244 56.2893 -34.578 55.7802 -34.8316 55.1383C-34.4457 56.1565 -34.0708 57.3075 -33.2989 57.9494C-32.5271 58.5913 -31.7663 59.1004 -30.7519 59.7424C-31.1378 61.5353 -31.0055 63.45 -31.1378 65.3646C-32.0309 65.1101 -33.0453 64.7227 -34.0708 64.7227C-34.578 64.8555 -35.3498 64.8555 -35.6034 65.2318C-35.9893 65.8737 -36.4965 66.3829 -36.3642 66.892C-36.1106 65.9955 -35.4711 65.4864 -34.4567 65.3536C-33.5636 65.3536 -32.6705 65.7409 -31.7773 65.9955C-32.6705 65.9955 -33.5636 66.1283 -34.3244 66.6374C-34.7103 67.0248 -35.0852 67.4011 -35.2175 67.7884C-35.9783 66.3829 -35.6034 66.892 -35.3498 67.2793C-35.4821 67.0248 -35.6034 66.5157 -35.4821 65.9955C-35.3498 65.6081 -34.7213 65.2318 -34.3354 65.2318C-33.321 65.099 -32.4279 65.099 -31.5348 65.3646C-31.4025 65.8737 -31.2812 66.1283 -31.2812 66.6485C-31.2812 67.1686 -31.2812 67.4121 -31.1488 67.9323C-31.7884 67.6777 -32.2956 67.7995 -32.9351 67.5449C-33.8282 67.5449 -34.9749 67.4121 -35.868 67.7995C-36.7612 68.1868 -37.4007 68.9505 -37.9079 69.7142C-37.522 69.0723 -36.8935 68.8177 -36.1216 68.5631C-35.1072 68.1758 -34.0818 68.3086 -32.9351 68.4303C-33.9495 68.5631 -34.8426 68.5631 -35.4821 69.0722C-36.1216 69.5813 -36.4965 70.2233 -37.0148 70.9869C-36.254 70.2233 -35.3608 69.5814 -34.589 69.3268C-33.6959 69.3268 -32.6815 69.4596 -31.5348 69.5814C-31.6671 69.9687 -32.042 70.5996 -32.4279 70.9869C-32.8138 71.3743 -33.321 71.6288 -33.8282 71.7506C-33.321 71.6178 -32.8138 71.6178 -32.5492 71.496C-32.042 71.3632 -31.9097 70.9869 -31.4024 70.7324C-31.7884 71.3743 -32.042 72.0162 -32.6815 72.5253C-33.0674 72.9127 -33.5746 73.1672 -33.9605 73.5435C-35.3608 72.647 -36.8935 71.3743 -38.6687 71.1087C-39.9477 70.7213 -41.6016 71.1087 -42.616 71.7506C-41.8552 71.496 -40.7085 71.1087 -39.9367 71.3632C-39.0436 71.3632 -38.0292 72.0051 -37.136 72.5142C-38.4151 72.1269 -39.6831 71.6178 -40.9621 71.7506C-42.2412 72.0051 -43.1232 72.7688 -44.1487 73.5435C-43.2556 72.9016 -42.2412 72.2597 -41.0944 72.1379C-40.08 72.0051 -39.0546 72.5253 -38.2938 73.289C-37.6543 73.6763 -37.1471 74.1854 -36.5076 74.5728C-38.0402 74.0637 -39.5618 73.8091 -41.0944 73.8091C-41.8552 73.8091 -42.8807 73.9419 -43.5202 74.451C-44.1597 74.9601 -44.4133 75.6021 -44.4133 76.3657V78.1586C-44.4133 77.395 -44.4133 76.7531 -44.0274 76.1112C-43.6415 75.4692 -43.1343 75.4692 -42.4948 75.2147C-41.9875 75.0819 -41.2157 75.0819 -40.7085 75.0819C-41.4693 75.0819 -42.2412 75.3364 -42.7484 75.591C-43.002 76.4875 -43.2556 77.1294 -43.3879 77.5057C-43.3879 78.2693 -43.2556 78.7895 -43.2556 79.4203C-43.1232 79.1658 -43.2556 78.6567 -43.2556 78.5239C-43.1232 78.1365 -43.002 77.6274 -42.616 77.24C-42.1088 76.9855 -41.337 76.9855 -40.8298 76.8527C-39.6831 76.9855 -38.6687 77.4946 -37.6432 78.1365C-38.2828 77.882 -39.1759 77.6274 -39.9367 77.6274C-40.4439 77.7602 -41.2157 77.7602 -41.4693 78.1365C-41.8552 78.5239 -41.9765 79.1547 -42.2301 79.7966C-42.0978 79.4093 -41.8442 79.1547 -41.4693 79.033C-40.9621 78.7784 -40.4549 78.9002 -40.069 79.033C-39.1759 79.2875 -38.1615 79.9294 -37.522 80.5714C-38.1615 80.3168 -38.5364 80.0623 -39.3082 80.0623C-39.9477 79.8077 -40.7085 80.0622 -41.2157 80.1951C-40.9621 80.3279 -40.7085 80.0622 -40.4549 80.1951C-39.6941 80.1951 -38.9223 80.4496 -38.0292 80.9587C-37.3896 81.3461 -36.8824 81.8552 -36.1216 82.3643C-35.3608 83.1279 -34.3354 83.6481 -33.5746 84.1572C-32.1743 85.0537 -30.5204 85.8173 -28.8664 85.9501C-27.7197 86.083 -26.4407 85.8173 -25.305 85.1865C-24.1583 84.5446 -23.1439 83.7809 -22.372 82.7516C-22.8792 83.5153 -23.2652 84.1572 -23.9047 84.6663C-24.6655 85.5628 -25.8122 86.2047 -27.0912 86.4592C-28.6239 86.7138 -30.1455 86.4593 -31.4245 85.9501C-29.6383 86.4593 -27.9843 87.1012 -26.1981 86.8466C-24.7978 86.8466 -23.3975 86.3375 -22.372 85.441C-21.093 84.4228 -20.3322 83.0062 -19.6927 81.4789C-19.6927 82.3754 -19.6927 83.139 -20.0786 84.0355C-20.3322 84.9319 -20.9717 85.441 -21.4789 85.9501C-21.7325 86.083 -21.8648 86.3375 -22.1184 86.4592L-22.5044 87.4775C-22.2508 87.3447 -21.8648 87.2229 -21.8648 86.9683C-20.5858 86.0719 -19.7037 84.9209 -19.1855 83.2607C-18.6783 81.7224 -18.9319 80.0622 -19.1855 78.5349C-18.6783 77.6385 -18.0388 76.6203 -18.0388 75.591C-18.0388 74.5617 -18.1711 73.5435 -18.546 72.647C-16.892 71.2415 -15.613 69.0722 -15.1058 66.6374C-14.9735 66.3828 -14.9735 66.1283 -14.7199 66.25C-14.9735 66.892 -15.1058 67.6556 -15.2271 68.5521C-15.2271 69.3157 -14.8412 69.9576 -14.5876 70.4668C-14.8412 69.7031 -14.8412 68.9284 -14.5876 68.1647C-14.334 67.2682 -13.8268 66.6263 -13.4409 65.9955C-13.4409 67.0137 -13.8268 67.9102 -13.5732 68.6849C-13.4409 68.9394 -13.5732 69.4485 -13.4409 69.7031C-13.3085 70.9869 -12.8013 72.3925 -12.4265 73.7981C-12.4265 74.8163 -12.1729 75.3364 -11.9193 76.2329C-11.7869 76.742 -11.4121 77.1294 -11.4121 77.6385L-11.5444 78.1476C-11.5444 78.1476 -16.6384 81.0915 -18.2924 82.6188C-18.9319 83.1279 -19.6927 83.3825 -20.1999 84.1572C-20.5858 84.7991 -20.4535 85.5628 -20.1999 86.3264C-20.7071 86.581 -21.3466 86.9684 -21.7325 87.4775C-22.1184 88.1194 -21.9861 88.883 -21.7325 89.6467C-21.6002 89.9012 -21.7325 90.4103 -21.6002 90.6649C-21.4679 92.325 -21.2143 93.8634 -20.7071 95.5235C-20.5748 95.7781 -20.5748 96.0326 -20.7071 96.2872C-20.7071 98.722 -19.6927 103.835 -19.6927 103.835L-19.9463 104.477C-19.9463 104.477 -21.093 105.374 -20.7071 105.883C-20.5748 106.137 -20.1999 106.525 -19.814 106.901C-20.0676 107.543 -20.0676 108.306 -20.1999 108.694C-20.3322 108.948 -20.0676 108.948 -19.9463 109.203C-19.3068 109.59 -18.9319 109.712 -18.2924 109.967C-17.6528 110.221 -17.0133 110.354 -16.2525 110.354C-15.9989 109.712 -15.8666 109.07 -16.1202 108.439C-16.2525 107.93 -16.5061 107.421 -16.881 107.034C-16.7487 106.646 -16.6274 106.137 -16.6274 105.628C-16.881 104.864 -17.3882 104.477 -17.6418 103.581C-18.2813 102.43 -18.4026 101.411 -18.2813 100.26C-18.2813 99.3639 -18.4137 98.3457 -18.2813 97.3164C-18.2813 96.42 -19.2957 94.118 -19.2957 94.118L-18.5349 91.6831C-18.5349 91.6831 -14.9735 99.0983 -13.8268 102.297C-13.6945 102.551 -13.9591 102.551 -13.6945 102.806C-13.6945 103.57 -13.6945 104.211 -13.1873 105.108C-12.9337 105.617 -12.2941 105.872 -11.7869 106.004C-12.0405 106.646 -11.9193 107.155 -11.6546 107.919C-11.5223 108.174 -11.2687 108.306 -11.1474 108.561C-10.3866 109.07 -9.7471 109.203 -8.85398 109.579C-8.46807 109.712 -7.96087 109.834 -7.57495 109.446C-7.70727 108.937 -7.70727 108.428 -8.08215 107.908C-8.33575 107.144 -8.84296 106.502 -9.36119 105.861C-9.36119 105.861 -9.61479 105.728 -9.4935 105.606C-9.2399 104.964 -9.10759 104.588 -9.4935 103.946C-9.7471 103.437 -10.3866 102.928 -10.8938 102.54C-12.0405 101.135 -12.5477 99.5963 -13.1873 97.9362C-13.9481 95.2468 -15.2271 89.6245 -15.2271 89.6245V89.4917C-13.9481 88.7281 -12.8013 87.8316 -11.6657 87.3225C-11.4121 87.1897 -10.9049 87.068 -10.3866 87.068C-9.62582 86.8134 -8.85399 86.5589 -8.2255 86.0498C-7.83958 85.6624 -7.46469 85.1533 -7.07878 84.7659C-6.43926 84.5114 -5.67846 84.2568 -5.29254 83.6149C-4.90663 82.973 -4.65303 82.3311 -4.39942 81.7002C-3.63862 81.4457 -2.7455 81.0583 -2.10599 80.5492C-1.46647 80.0401 -1.21287 79.1437 -0.95927 78.2472C0.18745 78.1144 1.20186 77.9926 2.09497 77.3507C2.73449 76.8416 3.10938 76.1997 3.62761 75.436C4.13481 74.6724 4.38841 73.7759 4.64201 72.8795C7.69625 73.8977 11.2687 74.0305 14.323 73.3886C17.1236 72.8795 19.6706 71.4739 22.0964 69.9355C24.6434 68.1426 26.9369 65.9734 28.9767 63.5385C30.1234 63.9259 31.1378 64.435 32.1633 64.0476C32.9241 63.7931 33.31 63.4057 33.9495 62.8966C34.8426 62.2547 35.9893 61.8784 37.1361 61.2365C39.6831 59.9526 42.1088 58.5471 45.0308 57.5289C46.3098 59.4435 47.3242 61.6238 47.5778 63.9259C47.4455 64.3132 47.3242 64.5678 47.4455 65.0769C47.4455 65.8405 47.4455 66.4825 47.5778 66.9916C47.3242 67.1244 47.1919 67.3789 47.1919 67.6335C47.0596 67.888 46.9383 68.2754 47.1919 68.5299C46.6847 68.6628 46.2988 69.1719 46.1775 69.681C45.9239 70.3229 45.9239 71.0865 46.3098 71.5956C46.4421 71.8502 46.5634 72.2375 46.9493 72.4921C47.3352 72.7467 47.4565 73.134 47.8424 73.2558C48.2284 73.3886 48.6032 73.2558 48.6032 73.0012C48.9892 72.3593 49.4964 71.8502 50.0036 71.0865C50.5108 70.9537 50.8967 70.6992 51.018 70.1901C51.2716 69.5481 51.018 68.7845 50.7644 67.888C50.6321 67.6335 50.6321 67.3789 50.7644 66.9916C50.6321 64.3022 50.0036 61.7456 49.2317 59.0672C50.5108 59.7092 51.3929 60.4728 52.5396 61.3693C52.9255 61.7566 53.4327 62.1329 53.554 62.6531C53.6753 63.1733 53.9399 63.6713 54.3148 63.9369C54.7007 64.3243 55.2079 64.1915 55.5938 64.3243C55.3402 64.9662 55.2079 65.4753 55.2079 66.1172C55.3402 66.3718 55.4615 66.7591 55.7151 66.7591C55.4615 67.4011 55.4615 68.1647 55.5828 68.8066C55.7151 69.3157 55.9687 69.7031 56.5972 70.0905C57.2367 70.4778 57.9975 70.9869 58.7583 70.9869C59.0119 71.1197 59.5191 70.9869 59.6514 70.5996C59.6294 68.9284 59.4971 68.4193 59.3758 67.9102ZM31.0937 40.9277C30.9614 39.9094 30.7078 39.1347 30.5865 38.1165C30.8401 38.6256 31.226 39.013 31.8656 39.5221C31.3473 40.0312 30.9614 40.4186 31.0937 40.9277Z" fill="white"/>
</g>
</g>
</g>
<path id="Vector_3" d="M2.55807 18.8037C9.18479 3.20961 27.1464 -4.08386 42.6822 2.5677C58.218 9.21925 65.4843 27.2482 58.8576 42.8422C52.2309 58.4363 34.2693 65.7298 18.7334 59.0782C3.19759 52.4267 -4.06864 34.4088 2.55807 18.8037ZM56.4428 41.824C62.5623 27.6355 55.9356 11.0122 41.6678 5.00254C27.4 -1.0071 10.971 5.51165 4.98383 19.833C-1.00337 34.1543 5.62334 50.6448 19.7589 56.7873C33.8944 62.9297 50.4556 56.1453 56.4428 41.824Z" fill="white"/>
</g>
<defs>
<clipPath id="clip0_18_489">
<rect width="62" height="62" fill="white"/>
</clipPath>
</defs>
</svg>
